/* XPM */
static char *_83df30225fc47e3a831a13250e9fe73[] = {
/* columns rows colors chars-per-pixel */
"50 50 168 2 ",
"   c #6A5F29",
".  c #4F692A",
"X  c #4F7127",
"o  c #48712F",
"O  c #5E752C",
"+  c #4A7734",
"@  c #5C7E31",
"#  c #63642A",
"$  c #7B602B",
"%  c #63722D",
"&  c #737F2D",
"*  c #637B32",
"=  c #6B7B3C",
"-  c #AC362A",
";  c #B0372F",
":  c #BC3C2E",
">  c #B23C2E",
",  c #B63834",
"<  c #A83A3B",
"1  c #C03D2B",
"2  c #C13C35",
"3  c #9D5A2F",
"4  c #8E483E",
"5  c #984A34",
"6  c #965634",
"7  c #9B5E3F",
"8  c #94573D",
"9  c #AA482F",
"0  c #BC4D2D",
"q  c #BD432E",
"w  c #A04334",
"e  c #B44336",
"r  c #B34C33",
"t  c #AE5B31",
"y  c #876132",
"u  c #867339",
"i  c #B06D36",
"p  c #BA6238",
"a  c #A0773F",
"s  c #AF773C",
"d  c #C8482D",
"f  c #C44B32",
"g  c #A03B43",
"h  c #A55F57",
"j  c #B85550",
"k  c #977746",
"l  c #9E7443",
"z  c #9D774A",
"x  c #AB7447",
"c  c #A07945",
"v  c #A27B4B",
"b  c #A97D4D",
"n  c #A37548",
"m  c #B17D44",
"M  c #A56A58",
"N  c #488B2E",
"B  c #438F2D",
"V  c #52872B",
"C  c #4D8C33",
"Z  c #55883B",
"A  c #4D9F3B",
"S  c #54953D",
"D  c #668238",
"F  c #758A3F",
"G  c #698643",
"H  c #778748",
"J  c #7D8A4C",
"K  c #758B4B",
"L  c #5CA94B",
"P  c #63A443",
"I  c #65AE52",
"U  c #67B255",
"Y  c #71B25E",
"T  c #BB803A",
"R  c #CE8F3F",
"E  c #D1873C",
"W  c #CB963A",
"Q  c #DEA83E",
"!  c #E3A63E",
"~  c #E8A43F",
"^  c #E8AC3E",
"/  c #EABB3F",
"(  c #E1C33F",
")  c #82974C",
"_  c #A5814C",
"`  c #A8814B",
"'  c #A58151",
"]  c #A98650",
"[  c #AC8A58",
"{  c #B38753",
"}  c #B48A58",
"|  c #BC9657",
" . c #BD955A",
".. c #BD9861",
"X. c #BE9A68",
"o. c #BE9F71",
"O. c #83A360",
"+. c #CB8F46",
"@. c #C99647",
"#. c #C6944C",
"$. c #C29446",
"%. c #C48C5B",
"&. c #C4925F",
"*. c #C7A15A",
"=. c #E0A142",
"-. c #E6AF48",
";. c #E9BD40",
":. c #C49B62",
">. c #CD9E65",
",. c #D29F6A",
"<. c #CAA266",
"1. c #CCA967",
"2. c #CDA469",
"3. c #D0A266",
"4. c #D2A469",
"5. c #C7A174",
"6. c #CDA375",
"7. c #CDAB7B",
"8. c #D2A976",
"9. c #D0A578",
"0. c #DEAF79",
"q. c #D4A571",
"w. c #D4B17D",
"e. c #ECC745",
"r. c #D3BB8B",
"t. c #D2AD9B",
"y. c #D0B693",
"u. c #D7BA92",
"i. c #D6BE9C",
"p. c #D8AFAD",
"a. c #D1BDB2",
"s. c #D8B7A8",
"d. c #A7C28B",
"f. c #BDC4B2",
"g. c #DCC5A4",
"h. c #D7C4A4",
"j. c #D6C5B1",
"k. c #D3CBB8",
"l. c #DED5B6",
"z. c #E4D3B7",
"x. c #E6C7A8",
"c. c #CEDED1",
"v. c #E2D5C5",
"b. c #E4D9C5",
"n. c #E9D4CF",
"m. c #4E361D",
"M. c #4E361D",
"N. c #4E361D",
"B. c #4E361D",
"V. c #4E361D",
"C. c #4E361D",
"Z. c #4E361D",
"A. c #4E361D",
"S. c #4E361D",
"D. c #4E361D",
"F. c #4E361D",
"G. c #4E361D",
"H. c #4E361D",
"J. c #4E361D",
"K. c #4E361D",
"L. c #4E361D",
"P. c #4E361D",
"I. c #4E361D",
"U. c #4E361D",
"Y. c #4E361D",
"T. c #4E361D",
"R. c #4E361D",
"E. c #4E361D",
/* pixels */
"U.U.U.U.U.U.U.U.U.U.U.U.U.U.U.U.U.U.U.U.U.U.U.U.U.U.U.U.U.U.U.U.U.U.U.U.U.U.U.U.U.U.U.U.U.U.U.U.U.U.",
"U.U.U.U.U.U.U.U.U.U.U.U.U.U.U.U.U.U.U.U.U.U.U.U.U.U.U.U.U.U.U.U.U.U.U.U.U.U.U.U.U.U.U.U.U.U.U.U.U.U.",
"U.U.U.U.U.U.U.U.U.U.U.U.U.U.U.U.U.U.U.U.U.U.U.U.U.U.U.U.U.U.U.U.U.U.U.U.U.U.U.U.U.U.U.U.U.U.U.U.U.U.",
"U.U.U.U.U.U.U.U.U.U.U.U.U.U.U.U.U.U.U.U.U.U.U.U.U.U.U.U.U.U.U.U.U.U.U.U.U.U.U.U.U.U.U.U.U.U.U.U.U.U.",
"U.U.U.U.U.U.U.U.U.U.U.U.U.U.U.U.U.U.U.U.U.U.U.U.U.U.U.U.U.U.U.U.U.U.U.U.U.U.U.U.U.U.U.U.U.U.U.U.U.U.",
"U.U.U.U.U.U.U.U.U.U.U.U.U.U.U.U.U.U.U.U.U.U.U.U.U.U.U.U.U.U.U.U.U.U.U.U.U.U.U.U.U.U.U.U.U.U.U.U.U.U.",
"U.U.U.U.U.U.U.U.U.U.U.U.U.U.U.U.U.U.U.U.U.U.U.U.U.U.U.U.U.U.U.U.U.U.U.U.U.U.U.U.U.U.U.U.U.U.U.U.U.U.",
"U.U.U.U.U.U.U.U.U.U.U.U.U.U.U.U.U.U.U.U.U.U.U.U.U.U.U.U.U.U.U.U.U.U.U.U.U.U.U.U.U.U.U.U.U.U.U.U.U.U.",
"U.U.U.U.U.U.U.U.U.U.U.U.U.U.U.U.U.U.U.U.U.U.U.U.U.U.U.U.U.U.U.U.U.U.U.U.U.U.U.U.U.U.U.U.U.U.U.U.U.U.",
"U.U.U.U.U.U.U.U.U.U.U.U.U.U.U.U.U.U.U.U.U.U.U.U.U.U.U.U.U.U.U.U.U.U.U.U.U.U.U.U.U.U.U.U.U.U.U.U.U.U.",
"U.U.U.U.U.U.U.U.U.U.U.U.U.U.U.U.U.U.U.U.U.U.U.U.U.U.U.U.U.U.U.U.U.U.U.U.U.U.U.U.U.U.U.U.U.U.U.U.U.U.",
"U.U.U.U.U.U.U.U.U.U.U.U.U.U.U.U.U.U.U.U.U.U.U.U.U.U.U.U.U.U.U.U.U.U.U.U.U.U.U.U.U.U.U.U.U.U.U.U.U.U.",
"U.U.U.U.U.U.U.U.U.U.U.U.U.U.U.U.U.U.U.U.U.U.U.U.U.U.U.U.U.U.U.U.U.U.U.U.U.U.U.U.U.U.U.U.U.U.U.U.U.U.",
"U.U.U.U.U.U.U.U.U.U.U.U.U.U.U.U.U.U.U.U.U.U.U.U.U.U.U.U.U.U.U.U.U.U.U.U.U.U.U.U.U.U.U.U.U.U.U.U.U.U.",
"U.U.U.U.U.U.U.U.U.U.U.U.U.U.U.U.U.U.U.U.U.U.U.U.U.U.U.U.U.U.U.U.U.U.U.U.U.U.U.U.U.U.U.U.U.U.U.U.U.U.",
"U.U.U.U.U.U.U.U.U.U.U.U.U.U.U.U.U.U.U.U.U.U.U.U.U.U.U.U.U.U.U.U.U.U.U.U.U.U.U.U.U.U.U.U.U.U.U.U.U.U.",
"U.U.U.U.U.U.U.U.U.U.U.U.U.U.U.U.K.U.U.U.J.J.K.K.P.J.K.U.I.P.P.U.U.U.U.U.U.U.U.U.U.U.U.U.U.U.U.U.U.U.",
"U.U.U.U.U.U.U.U.U.U.U.U.U.U.U.U.U.L.U.P.P.P.P.P.U.U.K.K.K.K.K.H.U.U.U.U.U.U.U.U.U.U.U.U.U.U.U.U.U.U.",
"U.U.U.U.U.U.U.U.U.U.U.U.U.U.U.U.P.U.U.U.U.P.P.P.U.U.L.L.L.P.U.U.U.U.U.U.U.U.U.U.U.U.U.U.U.U.U.U.U.U.",
"U.U.U.U.U.U.U.U.U.U.U.U.U.U.U.U.P.U.U.K.K.K.K.U.U.K.U.U.P.P.I.I.U.U.U.U.U.U.U.U.U.U.U.U.U.U.U.U.U.U.",
"U.U.U.U.U.U.U.U.U.U.U.U.U.U.U.U.U.U.U.U.K.J.U.J.U.U.U.K.U.U.K.K.U.U.U.U.U.U.U.U.U.U.U.U.U.U.U.U.U.U.",
"U.U.U.U.U.U.U.U.U.U.U.U.U.U.U.U.K.U.U.P.P.P.E.U.E.L.I.U.U.U.K.U.U.U.U.U.U.U.U.U.U.U.U.U.U.U.U.U.U.U.",
"U.U.U.U.U.U.U.U.U.U.U.U.U.U.U.U.K.U.L.P.U.H.T.A.b.v.b.S.H.U.P.I.U.U.U.U.U.U.U.U.U.U.U.U.U.U.U.U.U.U.",
"U.U.U.U.U.U.U.U.U.U.U.U.U.U.U.U.U.P.I.U.A.m.z.h.0.8.7.g.j.N.K.U.U.U.U.U.U.U.U.U.U.U.U.U.U.U.U.U.U.U.",
"U.U.U.U.U.U.U.U.U.U.U.U.U.U.U.K.U.P.b.z.x.7.w.q.4.<.<.3.2.w.u.i.L.K.K.I.K.U.J.K.U.U.U.U.U.U.U.U.U.U.",
"U.U.U.U.U.U.U.U.U.U.U.U.U.U.K.G.g.r.1.6.6.2.<.<.<.<.,.2.>.>.>.2.8.9.b.I.U.K.J.E.U.U.U.U.U.U.U.U.U.U.",
"U.U.U.U.U.U.U.U.U.U.U.U.U.U.K.G.b v c l c a b x v k z n z c n l c l k.P.U.I.G.P.U.U.U.U.U.U.U.U.U.U.",
"U.U.U.U.U.U.U.U.U.U.U.U.U.U.K.G.y.} %.[ ' b [ { { ` ` ` _ _ ' ' ] o.m.L.K.L.K.U.U.U.U.U.U.U.U.U.U.U.",
"U.U.U.U.U.U.U.U.U.U.U.U.U.U.K.G.d.) F K H J J G = D * O @ * % * & O.c.E.L.K.U.L.U.U.U.U.U.U.U.U.U.U.",
"U.U.U.U.U.U.U.U.U.U.U.U.U.U.U.G.Y L U P P U I S N B A S $ O C C + o f.I.I.K.G.E.U.U.U.U.U.U.U.U.U.U.",
"U.U.U.U.U.U.U.U.U.U.U.U.U.U.K.G.s.e u 3 r Z V y > 9 X   2 e . # e 1 j n.J.H.T.F.U.U.U.U.U.U.U.U.U.U.",
"U.U.U.U.U.U.U.U.U.U.L.U.U.U.K.Z.h , , f f r f : < ; q 0 d f 0 0 : - p.I.P.R.I.K.U.U.U.U.U.U.U.U.U.U.",
"U.U.U.U.U.U.U.U.U.U.U.U.U.U.K.G.t.4 p ~ / ;.=.t g w E / e.( e.Q p 5 a.I.R.P.J.U.U.U.U.U.U.U.U.U.U.U.",
"U.U.U.U.U.U.U.U.U.U.U.U.U.K.L.G.:.x 7 s -.! i 8 6 8 m W ^ ^ ! T 6 M v.K.H.U.K.P.U.U.U.U.U.U.U.U.U.U.",
"U.U.U.U.U.U.U.U.U.U.U.U.U.K.L.G.4.*.:. .$.#.&...| X.:.#.+.R @.| | 5.l.D.K.J.J.U.U.U.U.U.U.U.U.U.U.U.",
"U.U.U.U.U.U.U.U.U.U.U.U.U.U.K.L.Z.B.N.N.M.M.C.C.N.B.M.M.V.B.M.B.N.V.U.P.P.U.J.P.U.U.U.U.U.U.U.U.U.U.",
"U.U.U.U.U.U.U.U.U.U.U.U.U.U.K.K.K.E.L.T.P.U.K.E.K.K.K.K.L.I.K.Y.J.K.U.I.U.U.I.P.U.U.U.U.U.U.U.U.U.U.",
"U.U.U.U.U.U.U.U.U.U.U.U.U.U.U.U.H.K.I.P.P.P.L.K.U.U.K.K.K.U.U.L.K.G.U.E.P.P.G.K.U.U.U.U.U.U.U.U.U.U.",
"U.U.U.U.U.U.U.U.U.U.U.U.U.U.U.U.U.J.I.P.G.J.U.K.P.L.I.U.U.U.I.I.I.I.K.G.G.Y.U.P.U.U.U.U.U.U.U.U.U.U.",
"U.U.U.U.U.U.U.U.U.U.U.U.U.U.U.U.P.I.I.K.K.P.L.P.K.K.U.L.U.K.P.U.Y.K.U.U.U.Y.I.J.U.U.U.U.U.U.U.U.U.U.",
"U.U.U.U.U.U.U.U.U.U.U.U.U.U.U.U.U.U.U.U.U.U.U.U.U.U.U.U.U.U.U.U.U.U.U.U.U.U.U.U.U.U.U.U.U.U.U.U.U.U.",
"U.U.U.U.U.U.U.U.U.U.U.U.U.U.U.U.U.U.U.U.U.U.U.U.U.U.U.U.U.U.U.U.U.U.U.U.U.U.U.U.U.U.U.U.U.U.U.U.U.U.",
"U.U.U.U.U.U.U.U.U.U.U.U.U.U.U.U.U.U.U.U.U.U.U.U.U.U.U.U.U.U.U.U.U.U.U.U.U.U.U.U.U.U.U.U.U.U.U.U.U.U.",
"U.U.U.U.U.U.U.U.U.U.U.U.U.U.U.U.U.U.U.U.U.U.U.U.U.U.U.U.U.U.U.U.U.U.U.U.U.U.U.U.U.U.U.U.U.U.U.U.U.U.",
"U.U.U.U.U.U.U.U.U.U.U.U.U.U.U.U.U.U.U.U.U.U.U.U.U.U.U.U.U.U.U.U.U.U.U.U.U.U.U.U.U.U.U.U.U.U.U.U.U.U.",
"U.U.U.U.U.U.U.U.U.U.U.U.U.U.U.U.U.U.U.U.U.U.U.U.U.U.U.U.U.U.U.U.U.U.U.U.U.U.U.U.U.U.U.U.U.U.U.U.U.U.",
"U.U.U.U.U.U.U.U.U.U.U.U.U.U.U.U.U.U.U.U.U.U.U.U.U.U.U.U.U.U.U.U.U.U.U.U.U.U.U.U.U.U.U.U.U.U.U.U.U.U.",
"U.U.U.U.U.U.U.U.U.U.U.U.U.U.U.U.U.U.U.U.U.U.U.U.U.U.U.U.U.U.U.U.U.U.U.U.U.U.U.U.U.U.U.U.U.U.U.U.U.U.",
"U.U.U.U.U.U.U.U.U.U.U.U.U.U.U.U.U.U.U.U.U.U.U.U.U.U.U.U.U.U.U.U.U.U.U.U.U.U.U.U.U.U.U.U.U.U.U.U.U.U.",
"U.U.U.U.U.U.U.U.U.U.U.U.U.U.U.U.U.U.U.U.U.U.U.U.U.U.U.U.U.U.U.U.U.U.U.U.U.U.U.U.U.U.U.U.U.U.U.U.U.U."
};
