/* XPM */
static char *b1373186e85c4ed799cbe0a65948fd85[] = {
/* columns rows colors chars-per-pixel */
"50 50 200 2 ",
"   c #040302",
".  c #0B0302",
"X  c #040A04",
"o  c #0A0904",
"O  c #040309",
"+  c #0B040B",
"@  c #070A09",
"#  c #0C0A0B",
"$  c #110202",
"%  c #150508",
"&  c #1B120C",
"*  c #080D10",
"=  c #0A1010",
"-  c #191416",
";  c #081A04",
":  c #370F0F",
">  c #291A0B",
",  c #23150C",
"<  c #3A0D10",
"1  c #022200",
"2  c #1F2503",
"3  c #232001",
"4  c #33240E",
"5  c #21211F",
"6  c #3B2B1E",
"7  c #302C2D",
"8  c #382E2B",
"9  c #442507",
"0  c #4D350F",
"q  c #50320C",
"w  c #4A2C15",
"e  c #522D17",
"r  c #5B2F1A",
"t  c #512E18",
"y  c #4C3213",
"u  c #45301A",
"i  c #4C321B",
"p  c #533015",
"a  c #54331A",
"s  c #542207",
"d  c #642613",
"f  c #73241D",
"g  c #402E2A",
"h  c #563A2D",
"j  c #613F24",
"k  c #056D00",
"l  c #0B6C01",
"z  c #0A6E0B",
"x  c #136C02",
"c  c #037000",
"v  c #0B7101",
"b  c #0D7E08",
"n  c #7F501C",
"m  c #5D412A",
"M  c #7E4D22",
"N  c #7F5322",
"B  c #744A32",
"V  c #527B53",
"C  c #6F7E6B",
"Z  c #7C7B75",
"A  c #7A7B7A",
"S  c #767A79",
"D  c #736C70",
"F  c #4F494B",
"G  c #AD0502",
"H  c #B30401",
"J  c #B80606",
"K  c #DB1F00",
"L  c #DF1F0A",
"P  c #E21C04",
"I  c #DC2100",
"U  c #DE2208",
"Y  c #D82501",
"T  c #E22100",
"R  c #EC3C2F",
"E  c #F63E32",
"W  c #894E1D",
"Q  c #84521C",
"!  c #834D23",
"~  c #854D29",
"^  c #835224",
"/  c #885321",
"(  c #A46D39",
")  c #E94138",
"_  c #ED5B3A",
"`  c #A57142",
"'  c #B37C43",
"]  c #BA7D4B",
"[  c #827D7C",
"{  c #807C73",
"}  c #D1784C",
"|  c #118103",
" . c #1BF501",
".. c #15FA02",
"X. c #1BFA03",
"o. c #17F808",
"O. c #22F703",
"+. c #23F903",
"@. c #50814A",
"#. c #7A837E",
"$. c #BD8A5A",
"%. c #BA8958",
"&. c #80817B",
"*. c #C38647",
"=. c #C48946",
"-. c #C4854D",
";. c #C6874A",
":. c #D48D4B",
">. c #CD914B",
",. c #C58953",
"<. c #CA8453",
"1. c #D28E51",
"2. c #D98C54",
"3. c #CE9254",
"4. c #D49053",
"5. c #DC9554",
"6. c #DD955B",
"7. c #D99953",
"8. c #DA924A",
"9. c #F98D4D",
"0. c #FE8E5C",
"q. c #F48F57",
"w. c #E59C55",
"e. c #EA9D55",
"r. c #E4955C",
"t. c #E49B5C",
"y. c #E99D5B",
"u. c #E39651",
"i. c #FA9455",
"p. c #F89248",
"a. c #EBA356",
"s. c #E7A259",
"d. c #FCA75C",
"f. c #F7AB5B",
"g. c #FEAE5C",
"h. c #F7AA5A",
"j. c #FCB15A",
"k. c #E99E61",
"l. c #FF9760",
"z. c #E5A163",
"x. c #EBA164",
"c. c #F6AA62",
"v. c #FEAC63",
"b. c #FFAD6A",
"n. c #FCB165",
"m. c #FFB674",
"M. c #FAC47E",
"N. c #7A7D81",
"B. c #918D8A",
"V. c #8E908F",
"C. c #8D8F91",
"Z. c #8D9194",
"A. c #9C9C9C",
"S. c #989D97",
"D. c gray55",
"F. c #A2A3A3",
"G. c #A9A8A4",
"H. c #B1B4AB",
"J. c #E4B281",
"K. c #FFC78D",
"L. c #FFCA96",
"P. c #DAD2CF",
"I. c #D6D8D8",
"U. c #DEE2D4",
"Y. c #D9DAE1",
"T. c #DFE2E9",
"R. c #EEEEEE",
"E. c #E6E8E9",
"W. c #F2EEEB",
"Q. c #ECF2ED",
"!. c #F3F3EE",
"~. c #FAF4ED",
"^. c #F3F8EE",
"/. c #F9FBEE",
"(. c #EDECF2",
"). c #E7ECF0",
"_. c #F4EFF3",
"`. c #F3EDFB",
"'. c #EFF1F3",
"]. c #EFF5FB",
"[. c #EFF9F8",
"{. c #F4F4F4",
"}. c #FAF6F5",
"|. c #F5F9F5",
" X c #FAF9F6",
".X c #F4F5FA",
"XX c #FAF6FB",
"oX c #F4FAFB",
"OX c #F8F8F8",
"+X c #F9F9F9",
"@X c gray98",
"#X c #FBFBFB",
"$X c #F9FAFA",
"%X c #FAFEFD",
"&X c gray99",
"*X c #FDFDFD",
"=X c #FEFEFE",
"-X c #FFFFFF",
";X c #FDFDFE",
":X c #FAFAFA",
/* pixels */
"R.@X{.{.@X{.*X{.{.*X{.*X{.@X{.{.*XR.*X{.{.*XR.*X{.{.*XR.*X{.@X{.{.*XR.@X@XR.*XR.@X@X{.@X{.@X{.{.@X{.",
"@X{.{.{.{.{.{.@X{.{.{.{.@X{.{.*X{.*X{.@XOX{.*X{.@X@X{.*XR.@X{.{.*X{.@X{.{.@X{.*X{.{.@X{.@X{.{.@X{.@X",
"{.{.@X{.{.@X{.{.{.{.{.@X{.{.@X{.*X{.{.{.{.{.{.@X{.{.{.{.@X{.{.@X{.{.{.{.{.{.@X{.@X{.{.{.{.{.@X{.@X{.",
"@X{.{.{.@X{.{.{.*X{.{.{.{.@X{.@X{.{.@X{.{.@X{.{.{.{.@X{.{.{.@X{.{.}.{.{.{.{.@X{.{.@X{.{.{.{.{.@X{.{.",
"@X{.{.@X{.@XR.@X*X@X*X{.@X{.{.@X{.*X{.@X{.{.@X{.{.@X{.*XR.@X{.{.@X{.@X{.{.@X{.@X{.{.@X{.@X{.{.{.{.@X",
"{.{.@X{.@X{.@X{.{.*X*X*X{.{.@XR.*X{.@X{.{.@X{.*X{.{.@X{.*X{.{.@XR.*X{.@X@X{.*XR.@X{.{.@X{.@X{.{.@X{.",
"*X{.@X{.R.*XR.@X{.{.*XR.*X{.{.*X{.@X{.{.@X{.@X{.@X@X{.*XR.@X{.{.*X{.@X{.{.@X{.*X{.{.@X{.*X{.{.@X{.@X",
"{.@X{.{.@X{.*X{.{.@X{.@X{.{.@X{.@X{.@X{.{.@X{.@X{.{.@X{.@X{.@X@X{.@X{.{.{.{.@X{.@X@X{.@X{.@X{.{.{.{.",
"@X{.{.{.@X{.{.{.{.@X{.{.@X{.{.{.}.oX|..X].}.XX{.{.{.{.OX{.OX{.{..XXXoX{.~.@X[.{.{.{.{.{.{.{.{.{.{.{.",
"{.{.{.@X{.@X{.@X@X{.@X{.@X{.@X{.!.@X~.{.&XR.XX{.oXoX.X@X'.:X{.{.*X{.{.|.{..XoX#X{.{.{.{.@X{.{.{.{.@X",
"{.{.{.{.*XR.*X{.{.@X{.:X{.{.@X{.*X'.}.}.!.&X'.oX{.{.}.{.*X{.{.}.!.}.!.&X.X{.@XW.{.@X{.*X{.@X{.{.@X{.",
"@X{.@X{.{.*XR.@X@X{.*X{.&X{.{.OXR.&X{.{.OX{.*X!.}.#X{.*XR.@X{.{.&X{.}.Q.:X*X!.;X{.{.@X{.*X{.{.{.{.@X",
"{.@X{.{.@X{.@X{.@X@X{.@X{.@XOX}.XXB.[ A { Z A A Z A N.N.A [ A N.Z.oX{.*X.X{.OX{.{.{.{.*X{.@X{.{.@X{.",
"{.{.{.{.{.{.{.{.{.{.{.{.@X{.{.{.E.6   O @ + + o @ @ X @ o . o . 6 R..X{.OXOX{.oX{.{.{.{.@X{.{.{.{.{.",
"{.{.@X{.{.@X{.@X@X{.{.{.{.@X}.G.& $.t.k.e.e.w.s.y.e.e.e.k.z.t.e.$., F.~.}..X{..X@X{.@X{.@X{.@X{.{.{.",
"{.{.{.{.@X{.@X{.{.@X{.@X{.{.G.Z m 7.m.L.%.' c.g.c.g.g.v.K.J.( z.u.m Z G.{..X@X{.{.@X{.@X{.@X{.{.@X{.",
"*X{.*X{.{.*X{.@X{.{.:XQ.%X).& m v.g.M.OXF & d.n.v.v.v.v.~.H.X *.v.g.j - R./.`.&X{.{.@X{.@X{.@X@X{.@X",
"R.@X{.{.*X{.*X{.{.|.{.*XD.g $.u.n.v.3.7 # & v.v.n.v.g.f.h 5 O <.v.v.w.%.8 V.*X(.@X{.{.@XR.*X{.{.@X{.",
"*X{.{.@X{.@X{.@XoXOX}.!.&.. z.v.g.i.} < 4 a f.5.=.=.5.c.j 4 : } l.h.j.w.# #.'.$X{.@X{.{.@X{.{.@X{.*X",
"{.@X{.{.@X{.{.{.oX'.#X{.A # w.j.v._ R ) 9.d.n.B .   B v.v.p.) E _ v.b.y.o Z .X}.@X{.{.{.{.{.{.{.@X{.",
"{.@X{.{.@X{.{.{.OX@X{.oXA # e.b.b.i.i.0.d.b.g.2.] ' >.j.n.h.0.9.q.v.v.s.o Z $X{.@X{.{.@X{.@X{.{.{.{.",
"*X{.{.@X{.@X{.@X{.!.}.I.D $ ;.5.u.6.5.r.6.t.8.t.7.r.6.r.6.7.r.5.7.t.5.,.. D I.:X{.@X@X{.*XR.@X@X{.*X",
"R.@X{.{.*X{.*X{.XXOXI.* O O . O . X o   O   o   o . .   . o   o o . . . O O # I.@X{.{.*XR.*X{.{.@X{.",
"*X{.@X{.{.*X{.@XOX!.E.# > a p e p i p q e p e y t w y a y r e i i y y y 0 > % E.{.{.@X{.*X{.@X@X{.@X",
"{.@X{.{.@X{.@X{.OX:XU.- u N ^ W n ~ Q Q ~ M / ! W ! Q ! ! ^ ~ ! ! / ! ^ ^ y - T.{.@X{.@X{.@X{.{.{.{.",
"{.@X{.{.{.{.{.{.'.OX~.E.A .   . #     o . . o X . o X . @ . .   # . X . $ S W.{.@X{.@X{.{.{.{.{.{.{.",
"@X{.@X{.{.*X{.@XoX}.Q.C.V x k z l k l c c l l x k x k k l l l l l k v k v @.C.W.{.@X{.{.*X{.@X{.{.@X",
"{.@X{.{.*XR.*X{.^.;XY.# |  .o. .O.X.O.O..... ...X. .+.+... . ...X.X. .X.o.b = Y.@X{.{.@X{.@X{.{.*X{.",
"@X{.@X{.R.*XR.@XOX{.|.I.C 1 1 9 Y T P U 9 3 K U I L P K 2 9 Y P K I s ; 1 C P.|.{.@X{.{.*X{.@X{.{.@X",
"{.@X{.{.@X{.@X{.[.XX{.|.[ + w f H H J G d r H G J H G H r d H J J H d u . Z @X.X@X{.{.@X{.@X{.{.@X{.",
"{.{.{.{.{.{.{.{.}.|.OX:XS . x.(   O     ] 6.@ . O   O o 6.]     O O ` e.o A OX{.{.@X{.{.{.{.{.{.{.{.",
"@X{.@X{.{.@X{.@XOX{.}..XZ # w.a.-.*.<.;.a.c.*.,.-.;.-.-.d.a.,.-.;.=.k.e.o N.{.|.{.{.@X{.@X{.@X{.{.@X",
"{.*X{.{.@X{.*X{..XOX!.%XZ.6 %.:.1.4.1.4.4.1.4.1.1.4.1.1.1.4.1.4.3.:.:.$.6 Z.&X!.@X@X{.@X{.*X{.{.@X{.",
"*X{.@X@X{.@X{.@X.X{.}._.:X).- .                                   . . & (.XXW.;X{.@X@X{.*XR.@X@X{.*X",
"R.@X{.{.@X{.@X{.oXOX{.OX{.!.G.A.F.A.F.A.A.F.A.F.A.A.F.A.F.A.A.F.S.F.S.G.{.~.*X(.*X{.{.@X{.*X{.{.@X{.",
"@X{.{.{.{.{.{.@X~.{..X.X{.}.}.#X{.{.{.{.{.{.{.{.{.{.{.@X{.{.{.{.OX.X.X{.}.}.!.&X{.@X@X{.@X{..X{.{.@X",
"@X{.{.{.{.{.{.{.{.{.&X{.OX.XoX].{.{.{.{.{.{.{.{.{.{.{.{.{.{.@X{.|.!.OX@X.XOX'.:X{.@X@X{.@X{.@X{.{.@X",
"R.@X{.{.@X{.@X{.oXoXQ.$X{.{.OX!.{.{.@X{.{.@X{.{.{.{.OX{.@X{.{.@X{.*X{..XOXOX*XQ.*X{.{.@X{.*X{.{.@XR.",
"*X{.@X@X{.@X{.@X}.{.*X{.:X.X@XOX{.@X{.@X@X{.@X{.@X{.{.*XR.@X{.{.&XQ.OXOX^.|.{.*X{.@X@X{.*XR.@X@X{.*X",
"R.@X{.{.@X{.*X{.{.@X{.#X{.|.|.!.@X{.@X{.{.@X{.@X{.{.@X{.@X{.@X@X_.#X}.XX{..X:X{.@X@X{.@X{.@X{.{.@X{.",
"@X{.@X{.{.@X{.{.{.{.@X{.@X{.@X{.{.@X{.@X@X{.@X{.{.@X{.@X{.@X{.{.@X{.@X{.{.@X{.@X{.{.@X{.@X{.{.{.{.@X",
"{.{.{.{.{.{.{.{.{.{.{.{.{.@X{.@X{.{.@X{.{.@X{.{.@X{.{.@X{.{.@X{.@X{.{.@X@X{.{.@X{.@X{.{.{.{.{.{.{.{.",
"{.{.{.{.@X{.@X{.{.@X{.*X{.{.@X{.@X{.{.{.{.{.{.@X{.{.@X{.@X{.{.@X{.@X{.{.{.{.@X{.@X{.{.@X{.@X{.{.@X{.",
"{.{.{.@X{.*X{.@X{.{.@X{.@X{.{.@X{.*X{.{.{.{.*X{.{.{.{.*X{.@X{.{.@X{.@X{.{.@X{.@X{.@X{.{.*X{.@X{.{.@X",
"{.@X{.{.*XR.*X{.{.@X{.*X{.{.@X{.*XR.*X{.{.@XR.@X{.{.@X{.*X{.{.{.{.*X{.{.{.{.*X{.@X{.{.@X{.@X{.{.*X{.",
"@X{.{.{.{.@X{.{.{.{.@X{.@X{.{.{.{.*X{.@X@X{.*X{.@X{.{.@X{.@X{.{.@XR.*X{.{.*XR.@X{.@X{.{.*X{.@X{.{.@X",
"{.{.{.{.{.{.{.{.{.{.{.{.{.{.@X{.@X{.@X{.{.@X{.@X{.@X{.{.{.{.{.{.{.@X{.{.{.{.@X{.@X{.@X{.{.{.{.{.{.{.",
"{.@X{.{.@X{.@X{.{.{.{.{.{.@X{.{.{.{.@X{.{.@X{.@X{.{.@X{.@X{.@X{.{.@X{.@X@X{.@X{.{.@X{.@X{.@X{.{.@X{.",
"@X{.@X@X{.@X{.{.{.{.@X{.@X{.{.@X{.@X{.@X{.{.@X{.{.{.{.@X{.@X{.{.@X{.@X{.{.@X{.@X{.{.@X{.@X{.{.@X{.{.",
"{.@X{.{.@X{.@X{.{.@X{.@X{.@X{.{.*X{.*X{.{.*X{.@X{.{.*X{.*X{.@X{.{.*X{.@X@X{.@X{.{.@X{.*X{.@X{.{.@X{."
};
