/* XPM */
static char *_652fc9216ac463db790079f76a89c99[] = {
/* columns rows colors chars-per-pixel */
"50 50 219 2 ",
"   c #010101",
".  c #050A04",
"X  c #05050A",
"o  c #07090A",
"O  c #0B0B0C",
"+  c #0A0706",
"@  c #0A0812",
"#  c #1E1C1D",
"$  c #171514",
"%  c #221D1D",
"&  c #2B1E1E",
"*  c #20171C",
"=  c #321E1C",
"-  c #1C211B",
";  c #2A2416",
":  c #24221D",
">  c #2B231D",
",  c #2C291D",
"<  c #262718",
"1  c #31251D",
"2  c #352B1D",
"3  c #3E2E1C",
"4  c #3B2718",
"5  c #393316",
"6  c #1D1E21",
"7  c #231E22",
"8  c #2A1E23",
"9  c #231C2A",
"0  c #321C22",
"q  c #1E2126",
"w  c #252224",
"e  c #2A2424",
"r  c #2C2924",
"t  c #262429",
"y  c #2A2629",
"u  c #272928",
"i  c #2C2A2C",
"p  c #322623",
"a  c #312923",
"s  c #33222B",
"d  c #322D2C",
"f  c #3B2A27",
"g  c #2F312B",
"h  c #34322D",
"j  c #343027",
"k  c #2F2D32",
"l  c #2E2633",
"z  c #322E32",
"x  c #3B2F31",
"c  c #353334",
"v  c #393234",
"b  c #343538",
"n  c #393639",
"m  c #3C3B3C",
"M  c #2F3032",
"N  c #422D1B",
"B  c #44341B",
"V  c #44371A",
"C  c #42300C",
"Z  c #423321",
"A  c #453A23",
"S  c #403C3D",
"D  c #452F22",
"F  c #6E3B0E",
"G  c #53451E",
"H  c #6D460D",
"J  c #7D4C05",
"K  c #7D4C0B",
"L  c #78460A",
"P  c #7D4B13",
"I  c #764613",
"U  c #7B5719",
"Y  c #7F6115",
"T  c #534827",
"R  c #614E30",
"E  c #7C6021",
"W  c #3D3C42",
"Q  c #444343",
"!  c #4D4D4E",
"~  c #484749",
"^  c #535353",
"/  c #727275",
"(  c #79787B",
")  c #6F6E6F",
"_  c #854D04",
"`  c #894D06",
"'  c #844C0A",
"]  c #8B4D0C",
"[  c #854608",
"{  c #855106",
"}  c #86510B",
"|  c #8A510C",
" . c #895409",
".. c #844D12",
"X. c #8A4D12",
"o. c #824516",
"O. c #875A16",
"+. c #925F16",
"@. c #904C0D",
"#. c #94650D",
"$. c #9A660C",
"%. c #956B0D",
"&. c #996A0D",
"*. c #946306",
"=. c #8C6414",
"-. c #896417",
";. c #956514",
":. c #9A6514",
">. c #956A13",
",. c #9A6A13",
"<. c #95651A",
"1. c #9A6519",
"2. c #956A1A",
"3. c #9A691B",
"4. c #966A11",
"5. c #A06713",
"6. c #996722",
"7. c #8C6A20",
"8. c #807E7F",
"9. c #B48B1D",
"0. c #B48A26",
"q. c #CDA51F",
"w. c #CCA81E",
"e. c #D8AC18",
"r. c #C89E26",
"t. c #D39C25",
"y. c #CCA324",
"u. c #CEA32B",
"i. c #CDAB23",
"p. c #D1A324",
"a. c #DCAD24",
"s. c #DDAC2A",
"d. c #D2A925",
"f. c #DCB026",
"g. c #CEA330",
"h. c #E1AB25",
"j. c #E1B131",
"k. c #E7B54E",
"l. c #EFBE55",
"z. c #EBBE56",
"x. c #F2BD52",
"c. c #F2BE58",
"v. c #F6BE4F",
"b. c #FAC64D",
"n. c #ECC153",
"m. c #F1C052",
"M. c #FBC452",
"N. c #FCC954",
"B. c #FEC95A",
"V. c #F4C05D",
"C. c #EFC149",
"Z. c #7C7C81",
"A. c #817F84",
"S. c #7D8483",
"D. c #848485",
"F. c #848985",
"G. c #85868A",
"H. c #88858D",
"J. c #848B89",
"K. c #8A8B8C",
"L. c #8C8785",
"P. c #8D918D",
"I. c #8D8E92",
"U. c #918F92",
"Y. c #8D9193",
"T. c #929295",
"R. c #9B9A9C",
"E. c #939398",
"W. c #B7B09E",
"Q. c #9C9DA3",
"!. c #9A97A0",
"~. c #A19EA4",
"^. c #A3A2A5",
"/. c #A6A6AB",
"(. c #A8A7AB",
"). c #A7A9AC",
"_. c #ABABAD",
"`. c #AFB1AE",
"'. c #BDB4A5",
"]. c #BFB5A9",
"[. c #BFB8A9",
"{. c #ADAEB1",
"}. c #AEB1B3",
"|. c #B0B1B2",
" X c #B1AEB5",
".X c #C0B6A6",
"XX c #C1B6AA",
"oX c #C2B9AC",
"OX c #C5BEB2",
"+X c #C9BEB3",
"@X c #C7C1B5",
"#X c #C9C2B6",
"$X c #CCC5BA",
"%X c #CEC9BE",
"&X c #C6C5B9",
"*X c #D1C9BF",
"=X c #D3CCC3",
"-X c #D5CEC8",
";X c #D6D2C9",
":X c #D9D4CD",
">X c #D5D1C7",
",X c #DBD5D1",
"<X c #CECAC1",
"1X c #ECECEC",
"2X c #E8E5E5",
"3X c #F1EEEE",
"4X c #EFF1F1",
"5X c #F2F1F1",
"6X c #F5F5F5",
"7X c #F2F2F3",
"8X c #FDFDFD",
"9X c #FFFFFD",
"0X c #FFFEFC",
"qX c white",
"wX c #FEFEFF",
"eX c #FEFDFE",
"rX c #FEFDFD",
"tX c #F8F6F7",
"yX c #F2F0EF",
/* pixels */
",X:X:XwXwXwXwXwXwXwXwXwXwXwXwXwXwXwX7Xi % 7 7 7 % e w % i 7X8XwXwXwXwXwXwXwXwXwXwXwXwXwXwXwX0X:X:X,X",
",X:X;XwXwXwXwXwXwXwXwXwXwX6X7X6X6X7X2Xz % y y y r r w t c 2X6X3X1X6X7X7X7XwXwXwXwXwXwXwXwXwX0X:X:X:X",
",X;X;XwXwXwXwXwXwXwXwXwX7Xn d i i d i w r ^.^.K.G.G.K.G.D.c i c c i i i m 7XwXwXwXwXwXwXwXwXwX;X:X:X",
":X>X;XwXwXwXwXwXwXwXwXwX7Xz 7 y y w t w i (.{.Y.I.I.I.K.G.i % w y t t % i 7XwXtXwXwXwXwXwXwX0X;X;X:X",
";X-X-XwXwXwXwXwXwXwXwXwX3Xi t ~.^.K.D.t t (.}.Y.I.K.K.T.D.t i ^.^.K.8.t d 7XwXwXwXwXwXwXwXwXwX>X-X;X",
"-X=X-XwXwXwXwXwXwXwXwXwX7Xi k ^.|.T.D.y i ^.(.K.K.K.K.G.D.t i (.{.T.D.t i 7XwXwXwXwXwXwXwXwXwX-X-X-X",
"-X=X=XwXwXwXwXwXwXwXwXwX7Xk t _.{.I.K.t w i i i r i r i y w i (.{.Y.K.y i 1XwXwXwXwXwXwXwXwXwX<X=X=X",
"-X*X%X0XwXwXtXtX6X6XtX6X1Xi i /.}.K.D.r % w % e r e e % w 6 y ^.).Y.G.i i 1X6X6X6X6XtX0XwXwXwX%X=X=X",
"%X*X$XwXwXwXtXm c c v v g w i /.(.c r 8 7 % r k.k.y.r.e % 8 : l v L.F.y 6 b d h c v S 7X0XwXwX$X%X=X",
"*X$X$XwXwXwXyXi # r e r w % e ^.~.d w : % q r l.M.s.u.i 6 w < t r G.F.y : i e w w % z 7X0XwXwX$X$X=X",
"$X*X#XwXwXwX3XM i Q.Q.F.A.: : k x -.O.X.I & e V.N.f.y.1 1 H ' O.O.h u & e !.Q.G.Z.i i 4X0XwXwX$X$X%X",
"$X$X#XwXwXtX2Xi r ^.{.K.D.w 9 & , >.;.` ' e , v.N.h.p., e K ] 1.=., < w y _.}.Y.J.r i 7X0XwXwX#X$X$X",
"$X$X@XwX7XQ v 6 t d s i y w ; -.=.:.2. .L r r n.N.a.y., w J ] ;.:.+.O.w i /._.Y.G.w i 7X0XwXwX#X#X$X",
"$X#X@XwX1Xz % t w < 8 w w 7 s #.%.2.<.{ [ > a l.B.h.p., 8 K ] 1.>.$.;., r /.{.L.D.r i 1XtXwXwX#X#X$X",
"#X#XoXwX7Xi r R.Q.S.H.S.( w t <.,.&.5.] K : r b.N.a.y., > K ` ;.&.3.:.P I h i i i % w c Q 7XwX+X#X#X",
"$X+XOXwX7Xz r (. XP.K.J.H.e e #.,.2.1.' K > a l.N.a.p., = P } >.&.2.:.] _ : 9 > w e 7 w i 4XwXoX+X#X",
"OX+XoXwX1Xk r _.{.Y.J.b g L J 1.,.,.1.} ' > a m.N.a.p., w ' ' :.:.,.,.[ ' e w R.Q.D.Z.y r 7XwXXXOX#X",
"OXoXXX8X7Xk r ^.{.P.D.s 0 K { 1.,.,.:.} ' > a m.N.a.p., w ' ' :.>.,.;.] [ = f ~.{.K.K.y h 7XwXoXOXOX",
"@X].XXm c 7 w v k z j O.-.` ' :.,.,.1.} ' > a m.N.a.y., w ' ' :.>.#.>.X._ Y Y v b K.F.r i 4XwXoXOXOX",
"oXXXXX% w t w w : 7 > 1.;.' _ ,.,.,.1.} ' > a l.N.a.y., w ' ' :.3.,.#.X.` >.#.w r D.K.w i 7X8X].oXoX",
"OXoXXX% i E.R.A.Z.r r +.1.} | <.,.,.1.} ' > r m.N.a.p., > ' ' :.>.3.:.' ' 1.1.w w d i 8 % m S ].oXoX",
"oXXX].w u (._.I.D.r : ;.,.J | ;.,.,.1.} ' > r m.N.a.p., w ' ' :.,.,.1.} ' &.*.w 7 w w e % 7 7 XXoXoX",
"oXXXXX# i (._.Y.G.i , ;.;.| ' :.,.,.:.} ' > r m.N.a.p., > ' ' :.3.:.$.{ ..<.;., y T.R.A.( t % '.oXoX",
"oXXX].7 u /._.I.D.t > <.:.` ] ,.,.,.1.} K > a m.N.a.p., w ' ' :.>.,.1.} ' >.;.> i ).}.I.D.i % ].XXoX",
"oXXX'.7 : n c c d 8 : 2.5.' ' $.>.,.%.X.P > , n.N.s.u.1 , K ` 3.3.,.>._ @.1.-.> i /.{.I.D.t e W.].oX",
"XXXX'.w # w : w 7 e : -.5.} } :.,.,.#.] ..& p M.b.a.w.> > ..[ $.5.:.2.` [ >.>.> i /._.I.K.i % .XXXoX",
"XX'.].7 r E.T.( / w e 2.#.{ ' 3.,.:.>.{ J : , d.j.d.i.r > [ ] ,.&.:.:.` } >.;.e 7 n n v c w % '.].oX",
"XX].].% i /.`.T.G.r e <.&.} ] ;.3.<.;.] K e a y.a.f.y.e > K ..=.>.3.2.` ] ;.>.r % e 7 7 7 % 7 ].].XX",
"].].'.7 i )._.E.J.r e =.&...[ &.;.2 5 ' [ 8 , y.e.a.y.a w _ _ f Z ;.:.'  .:.#.; i K.E.Z.( t 7 W.].XX",
"XX].'.7 i _.(.I.F.w e >.:.X.] 7.#.s e L ' s > d.a.s.p.; w ' K e > -.3.' { 3.<.> t _.|.I.F.w w '.].XX",
"].XX'.% w m m v c w r ;.;.[ ' C 5 9.0.D ; - p k.C.f.r.f e , 3 9.9.Z 2 [ ] <.;.> i (._.T.J.i % '.].XX",
"oX'.'.8 % w : 7 7 % w <.,.{ K w p t.y., : w a x.B.h.w., # e p y.r.e ; ..{ >.;.> i ^.{.I.D.t e '.].XX",
"XX.X'.% t I.T.( / t > ;.>.` }  .U G V H H > 1 n.N.a.y., t F I A A E U ' { 1.;.: w m S n c 7 w '.].XX",
"].].'.w i ).(.E.D.y , ;.,.` ' <.:.; 0 ..[ : d c.M.a.g.> ; _ K = 4 -.&.` ..1.#.e % w 7 w w % w '.].XX",
"oX].[.% t ).`.Y.K.w e <.;.| } <.&.O.O.} K > p n.N.a.u.1 e P _ U U >.:.X.} #.#.r i K.U./ / w 7 '.XXXX",
"XXXX'.7 i /._.I.D.i > <.;.` { :.1.&.:.' K w p m.N.s.y.; w o.] >.,.,.<.] _ :.<.> i /.{.T.F.y % .X].oX",
"XXXX].% r W m m n e > ;.:. ._ ,.1.3.6.] K : a x.N.a.y., > ' ] ;.:.,.,.[ | >.;.e i /.|.T.K.r 7 '.XXoX",
"oXXXXX% 7 6 w w # % , <.>.| { ;.%.&.*.' ' w 1 m.b.a.y.p w P ` ,.3.>.>.X...&.#.e i /._.K.D.t e ].oXoX",
"oXoX].e t H.K./ ) y : <.:.` } 1.,.,.1.X.J w d x.b.s.u.; > K ' ;.&.:.>.] ' :.;.; w Q Q m n w # XXoXoX",
"OX[.oX7 i /.`.I.D.r > <.>.| _ 1.:.3.#.] [ e , c.B.a.q.p > J | :.,.3.%.` | >.=.r % 7 : w # 7 w [.oXoX",
"OXoXoXe y /.|.Y.G.e : ;.,._ _ ,.,.3.%.' J s d m.B.h.q.y w '  .:.,.,.<.] } 1.:.> r G.I./ ) y % oXOXOX",
"OXOXoX# i _._.I.G.y w <.;.' O.<.,.;.>.X.J , : m.N.s.q.r , J | >.,.&.;.] _ #.;.y t _.{.Y.K.y % oXOXOX",
"@XOXoXw t _._.T.J.u : ;.$.| ' ;.,.,.,.] K e r M.N.a.d.w : ' ] <.,.,.1.] _ ,.=.7 r _.}.Y.G.t : OXOX@X",
"#XOXoXw i /.`.U.D.r ; 6.:._ ` ,.,.3.;.' K = 2 c.b.s.r.a & P ` :.2.,.;.] } 2.=.4 r /.{.T.D.t % OX@X@X",
"$X+X#X% % ~ ~ W m t # Z B 3 N B B N B f 4 : : T R T G : % 4 3 V B B B N N Z B % w Q ! m m w : OX@X#X",
"$XOXOX7 w 7 # 7 8 # w 7 w w * w % 8 % - 7 % # t 7 : # w 7 7 % % % 8 : w w 9 % w % w 7 # w 7 % #X#X$X",
"$X$X#X+ X X + + . . O o X O O X . o . . o @ O . O . . . . . X @ . o . . . X . . o   O X X O + @X$X$X",
"$X$X&X  w 6 $ # $ W * $ :                         X     X   X   . X . O + X . X X O O o $ O   &X$X$X",
"$X%X&X  b ^ Q ! ~ ^ ! ! ! X                                     t Q Q m ~ m c Q m n ! Q i n   #X$X$X",
"=X$X%X                                                                                        #X$X%X"
};
