/* XPM */
static char *ff814ab38a6e42f69c975b01bcb2e4d1[] = {
/* columns rows colors chars-per-pixel */
"50 50 35 1 ",
"  c #1C160F",
". c #1F170E",
"X c #1F180F",
"o c #1F1810",
"O c #20170E",
"+ c #22190F",
"@ c #241A0F",
"# c #221A10",
"$ c #241B11",
"% c #261C11",
"& c #281D12",
"* c #2C1F12",
"= c #2B2012",
"- c #2D2013",
"; c #2F2314",
": c #302213",
"> c #302315",
", c #332414",
"< c #342515",
"1 c #382716",
"2 c #372816",
"3 c #3A2916",
"4 c #3C2A17",
"5 c #3B2A18",
"6 c #3D2B18",
"7 c #3F2C18",
"8 c #432F19",
"9 c #442F19",
"0 c #43301A",
"q c #47311A",
"w c #49331B",
"e c #4B341B",
"r c #4A331C",
"t c #4B341C",
"y c #4E361D",
/* pixels */
".+%+................$$...%#..........+%O........#%",
".&<<,>::>>>>,,#%;>,,<<>>,<<>,,;>>>>>><<,>>>>>>-+-2",
".>tyytwwttttyy&,tttyyyttttttyyqrtttttyyttttttw8%6y",
"wtywwtttyytyyr$-tyywtttyytyytttyyyyywwwtttyyytq+3t",
"yyywwtttytryyq+&8tywrttyyrtytttyyyyywwwtttyyyyq+<w",
"qwttttttywqttq++%qtttttyyqwtttyttttttttyyttwqyw+<q",
"&%%&&&%%&&&-=&..+%&&--&&&&&&%%&&&&&&%&&&&&&&&--$%&",
"$#.$%%$$%%%-&%$$%%$.&-%%%%%%%%$%%%%%$%%%%$++%&--&%",
"q3%qtywqtwqttttttq4.8yywqrttyyqwtttttyytwq*-rqwyyt",
"y3+8wywwyyyyytttyr8$7wytwttyyywttwtyttyy8>$&yyyytt",
"y3+8wtwwyyyyytttyt8%4wttttyyyytttqyyttty8&+&yyyttt",
"t3+qwqyyttttttqwtyqO7ttyywwtttttttyyqwtttw%&qwttyy",
"<-#<<,<<,<<<<3,<<<>.-<3<<,<<<<,<<<<<<<33<<+@,<<,<<",
".+%%$+++.+++$%++.+++++%#++++++.+++++%%%%$++++++.X+",
".>q9qtqqqwtqq9q3O7qqww9qqqqqqqqweqwttwqqwtqqtq8qq8",
".>twtyttttyytwt4+qtwyywttyyywtyyyttyyyyyyyyyywwtww",
".>tyyttttwwyyyt6%wyqwtyytyyywwyyytwqttyyytyytttyyt",
".,ytyyyyqwttttw3+0q-8tyewttttttttyttttttyywwtttwwt",
".-088qq86788884,.33$38q848888888888888888q77888678",
"...%#.....................+%+.....................",
"874887666883-+787764678777>+13488673$>7876&&776378",
"ytqyyttttyyw<+tytttwwtyytt2O8qqyyttq-3tyyr=-rttqty",
"ttttwqyyywqt3%qttyyywqtyyt<.8wytttwwyytyyq%&qyytwq",
"ttyyywwettwt<#qwwtyyrwyyyw<.8rywwttyytteww%&teeytw",
"qryytqqqqqqw,+899qqqqwytqq<+8qqqqqtywqqqqq%&yqqytw",
"+++++o+++++&$.++ooo+++&$+&$.++o++++o++++++$$++++%&",
">,,$%;>>>>,<<>>>;#$>,<<,:<<>+#>>,,>;>,,>&.,<:,,>&#",
"tyy->qrttttyytttt--tyytwqttr#&tttywqtyyt3O8rqyyt>.",
"tyy9qtyytttwwttyy--qttyytyyr&;tyytwwyyyt3Oqyttty<$",
"wtywwtyytrwwwttyy&-wttyyyyyw&-wyytwwyyyt3+qyttyy<#",
"qwtttytttwqtttyyq$&ytttyytwq$&qwttyytttt6%qtyyyq;.",
"-&&&&&&&-&&%%%%&&.o%&&&&&%%&++&&&&&&&&&%$+%&&&&&+.",
"-&%++%%%-&%%$$$$$$$$%%%%%$%%.+%%$.#%%%%$$%%%#$$$%%",
"tyy$&tqqtyyyyttwqwttyytttttr#&yw8O6ytyytttyyqwrqwt",
"yyw&-tytwtywttttwyywttwtyttt67yyq$7twyywwyytwttytt",
"ytq&>tyyqwtwwttttttqwtwyyttttttyq%6twtywwytttttyyt",
"twq$&qrttttyeqyyy-;tttyttqwttwqr8+3tyytqwtttywqqyy",
"<<,+$<<<<<<3<,<<<%%<<<<,,,,<<<,,>.-<<<,,<<23<<,,<<",
"++.++%+++++%#+++.++.++.....++++..++++X.+++%%+..+++",
"q<+7qqqqtw8+,qtwq93.3q8qq%<tqqtqqtwq9qqqwtqqq&$qwt",
"t7-qwtwrytq+,wyyyw8;8twtw%<yyyyttyytwtyttyewt&$tyy",
"tttyytqwttq.,qtyyyytttyyq+:qyyqrtyyttyytttyyt&$yeq",
"qeytttyyttq.,rtwwtttyytwq+:qttyttwwtyttwwyttt&$ttr",
"78q8889q886.;8874788qq874+-488q88478q8868q888&+788",
"%#..+%++%+..#%X.....$%O......+%+...+%#..........#%",
"874888774887788<.36477788448448777&.+-7874787447-+",
"twwyytttqyyttty7+8tqtttyyweywwtttt-+$<tyyqyytwwt>.",
"ttttwqyytttqtyt6%wytyytwqtttttyyyq>&yeqtttwwyttq:.",
"ttywwwtyt3,etet5#qyteeytwyytttytey>%tyyttywwetty>.",
"tyywwtttt;#yeqt3.8ttwwyttyyttttwwy:+wyytyytrqwty,."
};
