/* XPM */
static char *a486d6aedc7c47078fb8bfeed2134aa9YmHbkmmczZJdsTFf[] = {
/* columns rows colors chars-per-pixel */
"50 50 145 2 ",
"   c #030404",
".  c #000B05",
"X  c #020609",
"o  c #030A0A",
"O  c #0F0C0C",
"+  c #100B08",
"@  c #001307",
"#  c #01130B",
"$  c #0D140D",
"%  c #13160E",
"&  c #030B12",
"*  c #090F10",
"=  c #041313",
"-  c #0E1314",
";  c #031815",
":  c #0F1A14",
">  c #03141D",
",  c #08171D",
"<  c #021E1D",
"1  c #111313",
"2  c #1E1714",
"3  c #141C17",
"4  c #1E1A16",
"5  c #111519",
"6  c #141B1E",
"7  c #1E1D1D",
"8  c #062116",
"9  c #07211D",
"0  c #1C2115",
"q  c #1B221F",
"w  c #063F1C",
"e  c #2A221D",
"r  c #121C23",
"t  c #1E2321",
"y  c #192C26",
"u  c #1F252B",
"i  c #222322",
"p  c #2B2623",
"a  c #222924",
"s  c #2A2927",
"d  c #2A2A2A",
"f  c #362A23",
"g  c #382D25",
"h  c #29392A",
"j  c #37322E",
"k  c #38302A",
"l  c #2D3C32",
"z  c #243B3D",
"x  c #363535",
"c  c #07451F",
"v  c #074B21",
"b  c #30422E",
"n  c #364234",
"m  c #3B4C38",
"M  c #01742D",
"N  c #007A2F",
"B  c #007D31",
"V  c #253E42",
"C  c #25444A",
"Z  c #184677",
"A  c #16467B",
"S  c #17487C",
"D  c #18497E",
"F  c #D27742",
"G  c #008433",
"H  c #008A35",
"J  c #079D73",
"K  c #089D73",
"L  c #0BA97A",
"P  c #10AB7A",
"I  c #45B86E",
"U  c #46C375",
"Y  c #4BC676",
"T  c #D58150",
"R  c #E3824A",
"E  c #EF874B",
"W  c #EF884D",
"Q  c #E28751",
"!  c #D18D65",
"~  c #D18F68",
"^  c #DE966C",
"/  c #DE996F",
"(  c #D29571",
")  c #DF9A71",
"_  c #D19B78",
"`  c #EB9E71",
"'  c #ECA276",
"]  c #ECA579",
"[  c #FAA676",
"{  c #FAAA7B",
"}  c #174B82",
"|  c #1A4D84",
" . c #174F88",
".. c #194F8A",
"X. c #17518A",
"o. c #1A5388",
"O. c #195491",
"+. c #195996",
"@. c #4BD984",
"#. c #1F8CC6",
"$. c #148BCE",
"%. c #1490D4",
"&. c #1395D9",
"*. c #1698DD",
"=. c #2198D8",
"-. c #1599E1",
";. c #1A9CE2",
":. c #169FEA",
">. c #1AA2E8",
",. c #16A4F0",
"<. c #16A9F7",
"1. c #1CACF7",
"2. c #20A4E9",
"3. c #22AFF8",
"4. c #67C7EE",
"5. c #6CCAEF",
"6. c #71C3E1",
"7. c #72CCEF",
"8. c #B8B6B1",
"9. c #DDBD9D",
"0. c #FAAE81",
"q. c #C1BFBA",
"w. c #DFC0A0",
"e. c #C3C1BC",
"r. c #EAC6A3",
"t. c #EBC8A5",
"y. c #ECCBA9",
"u. c #F9D2AD",
"i. c #FAD5B0",
"p. c #FAD8B4",
"a. c #CCC9C5",
"s. c #D0CEC9",
"d. c #D5D4D4",
"f. c #E0DFDD",
"g. c #E2E0DE",
"h. c #E3E3E2",
"j. c #EDECEA",
"k. c #F0EFED",
"l. c #F1F0EE",
"z. c #F0F0F0",
"x. c #F9F7F5",
"c. c #FAF8F6",
"v. c #FCFBF9",
"b. c #FEFDFB",
"n. c #4E361D",
/* pixels */
"n.n.n.n.n.n.n.n.n.n.n.n.n.n.n.n.n.n.n.n.n.n.n.n.n.n.n.n.n.n.n.n.n.n.n.n.n.n.n.n.n.n.n.n.n.n.n.n.n.n.",
"n.n.n.n.n.n.n.n.n.n.n.n.n.n.n.n.n.n.n.n.n.n.n.n.n.n.n.n.n.n.n.n.n.n.n.n.n.n.n.n.n.n.n.n.n.n.n.n.n.n.",
"n.n.n.n.n.n.n.n.n.n.n.n.n.n.n.n.n.n.n.n.n.n.n.n.n.n.n.n.n.n.n.n.n.n.n.n.n.n.n.n.n.n.n.n.n.n.n.n.n.n.",
"n.n.n.n.n.n.n.n.n.n.n.n.n.n.n.n.n.n.n.n.n.n.n.n.n.n.n.n.n.n.n.n.n.n.n.n.n.n.n.n.n.n.n.n.n.n.n.n.n.n.",
"n.n.n.n.n.n.n.n.n.n.n.n.n.n.n.n.n.n.n.n.n.n.n.n.n.n.n.n.n.n.n.n.n.n.n.n.n.n.n.n.n.n.n.n.n.n.n.n.n.n.",
"n.n.n.n.n.n.n.n.n.n.n.n.n.n.n.n.n.n.n.n.n.n.n.n.n.n.n.n.n.n.n.n.n.n.n.n.n.n.n.n.n.n.n.n.n.n.n.n.n.n.",
"n.n.n.n.n.n.n.n.n.n.n.n.n.n.n.n.n.n.n.n.n.n.n.n.n.n.n.n.n.n.n.n.n.n.n.n.n.n.n.n.n.n.n.n.n.n.n.n.n.n.",
"n.n.n.n.n.n.n.n.n.n.n.n.n.n.n.n.z.z.n.n.n.n.n.n.n.n.n.n.n.n.z.z.n.n.n.n.n.n.n.n.n.n.n.n.n.n.n.n.n.n.",
"n.n.n.n.n.n.n.n.n.n.n.n.n.n.n.h.d d h.z.n.n.n.n.n.n.n.n.n.h.d i h.n.n.n.n.n.n.n.n.n.n.n.n.n.n.n.n.n.",
"n.n.n.n.n.n.n.n.n.n.n.n.n.n.z.d f.e.s d h.z.z.z.z.z.z.z.h.x 8.n i z.n.n.n.n.n.n.n.n.n.n.n.n.n.n.n.n.",
"n.n.n.n.n.n.n.n.n.n.n.n.n.n.h.d k.c.a.q.d r 7 7 7 7 7 7 d h.c.e.s h.n.n.n.n.n.n.n.n.n.n.n.n.n.n.n.n.",
"n.n.n.n.n.n.n.n.n.n.n.n.n.z.d h.b.n.b.v.k.k.k.k.k.k.k.k.l.b.n.c.q.d z.n.n.n.n.n.n.n.n.n.n.n.n.n.n.n.",
"n.n.n.n.n.n.n.n.n.n.n.n.n.z.7 k.n.n.n.v.k.k.k.k.k.k.k.k.v.n.n.v.a.7 z.n.n.n.n.n.n.n.n.n.n.n.n.n.n.n.",
"n.n.n.n.n.n.n.n.n.n.n.n.n.z.7 k.n.n.v.e.e 2 2 2 2 2 2 e e.v.n.v.a.7 z.n.n.n.n.n.n.n.n.n.n.n.n.n.n.n.",
"n.n.n.n.n.n.n.n.n.n.n.n.n.z.7 k.b.b.h.f R ' ' ' ` ` W R f h.b.v.a.7 z.n.n.n.n.n.n.n.n.n.n.n.n.n.n.n.",
"n.n.n.n.n.n.n.n.n.n.n.n.n.z.7 k.b.j.p ) { u.i.u.0.{ [ [ R p l.v.a.7 z.n.n.n.n.n.n.n.n.n.n.n.n.n.n.n.",
"n.n.n.n.n.n.n.n.n.n.n.n.n.z.7 k.v.e.e 9.i.p.p.p.i.u.' [ ` e h.v.a.7 z.n.n.n.n.n.n.n.n.n.n.n.n.n.n.n.",
"n.n.n.n.n.n.n.n.n.n.n.n.n.z.7 k.k.p _ g y.p.p.p.p.y.g ' [ R p j.a.7 z.n.n.n.n.n.n.n.n.n.n.n.n.n.n.n.",
"n.n.n.n.n.n.n.n.n.n.n.n.n.z.7 k.k.7 t.y.y.y.y.y.y.y.y.u.[ E 2 j.a.7 z.n.n.n.n.n.n.n.n.n.n.n.n.n.n.n.",
"n.n.n.n.n.n.n.n.n.n.n.n.n.z.7 k.l.s w.t.e 2 2 2 2 e y.u.[ R p j.e.7 h.z.n.n.n.n.n.n.n.n.n.n.n.n.n.n.",
"n.n.n.n.n.n.n.n.n.n.n.n.n.z.7 j.b.h.k Q 9.r.y.y.y.t.u.] ^ g g.s.m   : a h.n.n.n.n.n.n.n.n.n.n.n.n.n.",
"n.n.n.n.n.n.n.n.n.n.n.n.n.z.d e.v.b.h.p e Q r.y.t.] ) e p h.x.e.h o L U h h.n.n.n.n.n.n.n.n.n.n.n.n.",
"n.n.n.n.n.n.n.n.n.n.n.n.n.n.d.s j.n.b.l.h.p 7 7 7 2 p h.k.c.e.q $ # L @.Y a z.n.n.n.n.n.n.n.n.n.n.n.",
"n.n.n.n.n.n.n.n.n.n.n.n.z.h.7 : e.c.n.n.b.k.j.j.j.j.j.l.l.e.y L U I 8 P U 3 z.n.n.n.n.n.n.n.n.n.n.n.",
"n.n.n.n.n.n.n.n.n.n.n.h.p 5 o K q e.j.k.k.j.a.a.a.a.e.m b : L L 9 ; o $ % 1 z.n.n.n.n.n.n.n.n.n.n.n.",
"n.n.n.n.n.n.n.n.n.n.h.j ( #.= J o - 5 5 5 5 - - - - - o o o J < %.-.=.T ^ e h.n.n.n.n.n.n.n.n.n.n.n.",
"n.n.n.n.n.n.n.n.n.z.s 9.R 7   # X } X. .} } } } } } } } A X # X } X.} 4 / 9.j h.n.n.n.n.n.n.n.n.n.n.",
"n.n.n.n.n.n.n.n.n.z.7 9.e d.- M = ;.,.:.+.O.O.O.O.O.....} o M . X o # N 0 ) 9.s z.n.n.n.n.n.n.n.n.n.",
"n.n.n.n.n.n.n.n.n.z.7 9.7 h.t M = 5.1.<.,.,.,.,.,.:.+...} = N N @ w B H N 4 9.7 z.n.n.n.n.n.n.n.n.n.",
"n.n.n.n.n.n.n.n.n.z.7 9.p h.h.q * 7.1.<.<.<.<.<.<.<.:.O...A ; N M # B H G $ 9.7 z.n.n.n.n.n.n.n.n.n.",
"n.n.n.n.n.n.n.n.n.z.7 r.) p z.h.6 7.1.<.<.<.<.<.<.<.,.O.....A = . . v G B 0 9.7 z.n.n.n.n.n.n.n.n.n.",
"n.n.n.n.n.n.n.n.n.z.p ) ^ p z.z.6 5.1.<.<.<.<.<.<.<.,.+.......A o w v B : w.t.7 z.n.n.n.n.n.n.n.n.n.",
"n.n.n.n.n.n.n.n.n.n.h.p p h.n.z.5 2.<.<.<.<.<.<.<.<.<.:.O.....} o c v B $ 9.) p z.n.n.n.n.n.n.n.n.n.",
"n.n.n.n.n.n.n.n.n.n.n.z.z.n.n.z.6 5.1.<.<.<.<.<.<.<.<.,.O.....} o w c N - 4 p h.n.n.n.n.n.n.n.n.n.n.",
"n.n.n.n.n.n.n.n.n.n.n.n.n.n.n.z.6 7.3.<.1.<.<.<.<.<.<.:.O.....} X - 1 t h.z.z.n.n.n.n.n.n.n.n.n.n.n.",
"n.n.n.n.n.n.n.n.n.n.n.n.n.n.n.z.6 6.5.2.4.>.:.:.:.:.-.X.} } } A 5 h.z.z.n.n.n.n.n.n.n.n.n.n.n.n.n.n.",
"n.n.n.n.n.n.n.n.n.n.n.n.n.n.n.z.1 , , > , > > > = > & & & & & o 1 z.n.n.n.n.n.n.n.n.n.n.n.n.n.n.n.n.",
"n.n.n.n.n.n.n.n.n.n.n.n.n.n.n.z.5 %.-.-.-.*.&.%. .$. .} } } D z 1 z.n.n.n.n.n.n.n.n.n.n.n.n.n.n.n.n.",
"n.n.n.n.n.n.n.n.n.n.n.n.n.n.n.z.5  .O.O.o.C r 5 5 r S ....| | z t z.n.n.n.n.n.n.n.n.n.n.n.n.n.n.n.n.",
"n.n.n.n.n.n.n.n.n.n.n.n.n.n.n.z.5 } ..| V i h.z.z.h.u S | C V 5 h.n.n.n.n.n.n.n.n.n.n.n.n.n.n.n.n.n.",
"n.n.n.n.n.n.n.n.n.n.n.n.n.n.n.z.5 A } A 5 h.n.n.n.n.h.u Z V z 1 z.n.n.n.n.n.n.n.n.n.n.n.n.n.n.n.n.n.",
"n.n.n.n.n.n.n.n.n.n.n.n.n.n.n.z.1 O X 5 7 z.n.n.n.n.n.h.t   + 1 z.n.n.n.n.n.n.n.n.n.n.n.n.n.n.n.n.n.",
"n.n.n.n.n.n.n.n.n.n.n.n.n.n.n.z.2 F 2 h.z.n.n.n.n.n.n.n.h.2 F 2 z.n.n.n.n.n.n.n.n.n.n.n.n.n.n.n.n.n.",
"n.n.n.n.n.n.n.n.n.n.n.n.n.n.n.z.p ! e h.n.n.n.n.n.n.n.n.z.p ! e h.n.n.n.n.n.n.n.n.n.n.n.n.n.n.n.n.n.",
"n.n.n.n.n.n.n.n.n.n.n.n.n.n.n.n.h.e ! p z.n.n.n.n.n.n.n.n.h.e ! p z.n.n.n.n.n.n.n.n.n.n.n.n.n.n.n.n.",
"n.n.n.n.n.n.n.n.n.n.n.n.n.n.n.n.h.2 ~ 2 z.n.n.n.n.n.n.n.n.z.2 ~ 2 z.n.n.n.n.n.n.n.n.n.n.n.n.n.n.n.n.",
"n.n.n.n.n.n.n.n.n.n.n.n.n.n.n.h.q o n 1 z.n.n.n.n.n.n.n.n.z.1 n 5 h.n.n.n.n.n.n.n.n.n.n.n.n.n.n.n.n.",
"n.n.n.n.n.n.n.n.n.n.n.n.n.n.z.i l l l 1 z.n.n.n.n.n.n.n.n.z.1 l l i z.n.n.n.n.n.n.n.n.n.n.n.n.n.n.n.",
"n.n.n.n.n.n.n.n.n.n.n.n.n.n.z.i l l l 1 z.n.n.n.n.n.n.n.n.z.1 l l 1 z.n.n.n.n.n.n.n.n.n.n.n.n.n.n.n.",
"n.n.n.n.n.n.n.n.n.n.n.n.n.n.n.h.1     1 z.n.n.n.n.n.n.n.n.z.1     1 z.n.n.n.n.n.n.n.n.n.n.n.n.n.n.n."
};
