/* XPM */
static char *_8145386adca4d08a6609e6f553263b5[] = {
/* columns rows colors chars-per-pixel */
"50 50 217 2 ",
"   c #1F1D32",
".  c #221F32",
"X  c #1F2638",
"o  c #31242E",
"O  c #252333",
"+  c #2B2334",
"@  c #26273B",
"#  c #2A253A",
"$  c #2B2A3B",
"%  c #272A36",
"&  c #322433",
"*  c #352936",
"=  c #322439",
"-  c #322D3C",
";  c #3C2E3A",
":  c #3A2738",
">  c #2F313D",
",  c #3C333C",
"<  c #353B3F",
"1  c #36353D",
"2  c #422C3C",
"3  c #44333E",
"4  c #2E2A41",
"5  c #342E42",
"6  c #3B2D43",
"7  c #333343",
"8  c #3C3242",
"9  c #353D41",
"0  c #3C3A45",
"q  c #3D3C4A",
"w  c #37384A",
"e  c #423443",
"r  c #4B3641",
"t  c #453A44",
"y  c #4C3C45",
"u  c #45374A",
"i  c #443C4B",
"p  c #4B3D4B",
"a  c #53374D",
"s  c #523C4B",
"d  c #5B3C4D",
"f  c #523D46",
"g  c #453D51",
"h  c #4C3F56",
"j  c #533E52",
"k  c #5C3F56",
"l  c #3C434C",
"z  c #3C4D4C",
"x  c #3A4545",
"c  c #36504F",
"v  c #3E4D54",
"b  c #3C5452",
"n  c #434446",
"m  c #4A4245",
"M  c #44444C",
"N  c #4C434C",
"B  c #444A4D",
"V  c #4B4A4E",
"C  c #52424C",
"Z  c #59444E",
"A  c #554A4E",
"S  c #5C494F",
"D  c #43524E",
"F  c #464354",
"G  c #4C4453",
"H  c #444C52",
"J  c #4C4B53",
"K  c #454759",
"L  c #4B455A",
"P  c #474A59",
"I  c #4C4B5B",
"U  c #544453",
"Y  c #5C4454",
"T  c #524B53",
"R  c #5A4C55",
"E  c #524559",
"W  c #5B455C",
"Q  c #534C5B",
"!  c #5C4C5A",
"~  c #445253",
"^  c #4B5354",
"/  c #4C555B",
"(  c #4A555A",
")  c #555256",
"_  c #5C5255",
"`  c #5D5A57",
"'  c #54535A",
"]  c #5B535A",
"[  c #535B5C",
"{  c #5C595C",
"}  c #614459",
"|  c #634A5A",
" . c #614252",
".. c #62555C",
"X. c #635A5E",
"o. c #6B585D",
"O. c #64635F",
"+. c #4D4F61",
"@. c #554D63",
"#. c #5B4B64",
"$. c #5D4F69",
"%. c #4F5365",
"&. c #4D5A60",
"*. c #535264",
"=. c #5B5362",
"-. c #535965",
";. c #5D5C64",
":. c #5D5268",
">. c #555A69",
",. c #5C5B6A",
"<. c #614E63",
"1. c #684F62",
"2. c #714A65",
"3. c #645465",
"4. c #6C5365",
"5. c #645C63",
"6. c #6B5B63",
"7. c #63556A",
"8. c #6A5669",
"9. c #645B6A",
"0. c #6B5D6B",
"q. c #725C6D",
"w. c #705369",
"e. c #6C5D70",
"r. c #715E72",
"t. c #5E6266",
"y. c #5A646B",
"u. c #5B6371",
"i. c #5F6973",
"p. c #646364",
"a. c #6C6464",
"s. c #6B6966",
"d. c #64646B",
"f. c #6C646B",
"g. c #656B6B",
"h. c #6D6B6B",
"j. c #716666",
"k. c #70656B",
"l. c #736B6C",
"z. c #776B6A",
"x. c #6D726D",
"c. c #6E786F",
"v. c #73736E",
"b. c #78736F",
"n. c #76786D",
"m. c #646472",
"M. c #6D6472",
"N. c #636A75",
"B. c #6C6C73",
"V. c #6F6B7A",
"C. c #716473",
"Z. c #736D72",
"A. c #7A6D74",
"S. c #756C7B",
"D. c #7B6D7B",
"F. c #796577",
"G. c #6E7573",
"H. c #6E7975",
"J. c #6D757A",
"K. c #657479",
"L. c #747574",
"P. c #7A7475",
"I. c #747974",
"U. c #7A7976",
"Y. c #757579",
"T. c #7B757A",
"R. c #747A7A",
"E. c #7B7A7B",
"W. c #836E7D",
"Q. c #81757C",
"!. c #827A7E",
"~. c #817277",
"^. c #7B6D80",
"/. c #6E7884",
"(. c #767682",
"). c #7C7382",
"_. c #767C82",
"`. c #7D7C83",
"'. c #747B89",
"]. c #7D7D89",
"[. c #847583",
"{. c #837C84",
"}. c #897C85",
"|. c #82768A",
" X c #89768C",
".X c #847C8A",
"XX c #8C7D8B",
"oX c #917E8C",
"OX c #877B91",
"+X c #778787",
"@X c #7D8285",
"#X c #7D848B",
"$X c #7D888C",
"%X c #7F8691",
"&X c #7C8B93",
"*X c #838285",
"=X c #8A8286",
"-X c #85838B",
";X c #8B8189",
":X c #89838E",
">X c #8B828C",
",X c #828A8D",
"<X c #8A898F",
"1X c #92838D",
"2X c #848591",
"3X c #8B8390",
"4X c #848C94",
"5X c #8C8C95",
"6X c #848E99",
"7X c #8C8D9B",
"8X c #918492",
"9X c #918D97",
"0X c #8B9297",
"qX c #85939A",
"wX c #8D949C",
"eX c #86989B",
"rX c #879697",
/* pixels */
"XX{.e &XwX;X;X-X>X;XZ.I eX<XoX>XXX-X-X}.u %X0X;XoX;X>Xq -X0X;X>X;X1XXX).F 7X<X*X;X8X;X*X-XG (.eX>X>X",
"I.E.s 5XZ.E.E.I.L.R.L.5.`.E.L.L.E.Y.L.Q.U 5XH.U.R.L.E.Y 9XY.P.H.R.Y.P.Q.T >XY.Y.Y.H.R.I.T.Y 3XR.L.L.",
"P.d.H -XR.A.L.U.E.L.] 9.{.Y.Y.Y.L.Y.T.h.H >X~.Y.H.P.h.M .XY.L.T.Y.E.L.p.) `.U.T.R.U.Y.P.h.J {.R.U.U.",
"L.f.M >XR.T.I.P.x.a.X.;._.P.P.Y.I.E.P.p.p >XL.P.L.U.l.M XXI.U.L.Y.L.a.{ ) -XY.Y.U.Y.P.L.h.p `.L.Y.Y.",
"l.] , {.U.h.h.h.O.a.m Q *XP.P.Z.b.h.z...0 .X!.Y.E.a.{ , `.!.x.Z.h.a.a.T N .XP.v.x.P.h.z.p.< Q.}.P.Y.",
"N * O N =.i - l H p & * U R p q q a y < O u ! i i U 8 O u =.l 8 < J N # # G R Z q 0 p p 0 O q Y g g ",
"qX|..X X.XV.5 '.&X.X[.].S.[.|.L >.7X.X[.|.OX^.i u.qX[.|. X{.).7 /.4X{.XX|.^.).{.@.+.6X.X{.|. X[.I Q ",
"R.U.P.H.P.*XC wXY.P.L.h.a.L.E.4.#X_.R.I.Y.U.!.R B.R.I.U.H.P.!.C wXR.U.v.l.s.L.U.F.V.@XL.U.Y.Y.E.X.6.",
"T.P.Y.Y.Y.Z.G >XR.Y.l.{.U.Y.Y.' ).R.Y.P.I.Y.Z.T h.E.Y.P.I.I.l.M >XU.P.h.E.E.Y.L.{ M.`.v.T.R.P.L.) p.",
"R.P.G.U.I.5.H -XY.P.b.E.I.L.b.Z D.U.P.b.P.R.h.z x.Y.Y.P.x.U.a.~ -XY.R.L.P.R.R.L.R q.E.U.L.Y.L.v.^ d.",
"R.z.I.Y.L.X.H *XE.L.L.L.L.P.l.y Y.T.s.v.P.U.0.z h.P.I.R.R.z.a.x ;XT.L.L.L.L.L.h.C M.{.s.G.P.L.j.B p.",
"M...] G T 8 $ e.f.5.;.Q U R U + T C.y.J J G j O ! D.' ' J T e + 5.q.k.{ J T R T & F C.t.T G G C @ F ",
"M.f.Q 6 d.9.9.9.q.0.J 7 M.C.f.9.0.q.d.9.- / V.,.9.M.M.=.# ,.M.7.7.r.e.Q 5 0.C.M.9.,.e.V.9.5 P B.9.e.",
"Q.E.T.Q rX`.{.E.Q.!.T.5.5XE.E.).R.{.E.{.p wX`.`._.E.E.}.N wX_.E.{.E.`.E.J 5X{.E.E.E.E.Q.*X! 5X@XT.U.",
"E.L.Z.U *XY.Y.L.R.P.a...{.L.L.Y.I.L.U.L.f <XL.P.R.L.R.P.f *XR.R.L.v.I.L.V *XL.P.I.U.G.E.P.N .XU.Y.Y.",
"I.z.6.} {.P.Y.I.Y.L.{ 9.T.E.L.Y.Y.P.Y.d.m XXR.I.L.P.L.5.C ;XU.Y.Y.Y.P.3.Q >XY.Y.T.P.I.I.j.M .XY.L.Y.",
"L.E.;.&..XY.I.T.Y.Y.{ ;.`.I.L.U.Y.P.P.g.B >XE.Y.U.Y.I.p.~ >XT.H.P.I.Y.;.' .XE.Y.U.Y.P.P.h.I #XT.Y.Y.",
"v.L.o.N =XR.L.c.L.x.) 5.{.L.L.P.L.L.L.X.m =Xh.z.P.I.c.6.t =XY.P.b.v.b.{ ) *XP.L.L.L.b.v.l.t }.b.h.v.",
"_ R : 8 M.d.' ^ [ ! : 0 Y.A.6.;.R ' ' p & d.J.` T ..! 2 : C.B.' ) ' ] , - Y.Z.d.;.J { ) n + 9.R...) ",
"4.8.J *.7.T = %.N.7.W *.,.3.3.7 q N.y.<.#.=.9.4.=.w.4.Q Q :.I $ ( N.9.! @.,.3.7.q w i.d.:.@.@.9.7.:.",
"Q.E.h.Q.[.>Xp eX`.{.{.{.`.!.{.3.'.$X@X{.[.{.{.[.E.!.{.f.{.`.-Xs qX@X{.{.*X{.{.[.C.M.4X{.{.{.{.{.!.!.",
"L.Y.L.j.E.l.m -XR.L.L.Y.U.I.P.) ).U.P.b.v.R.I.G.P.v.U.v.s.I.L.p -XR.P.P.I.L.P.L.6.k.{.R.I.L.Y.I.Y.Y.",
"I.P.Y.I.Y.5.^ XXR.P.P.Y.Y.b.Z.T ).E.L.Y.E.Y.P.P.P.L.U.R.v.Y.h.H >XL.U.U.G.E.P.L.' M.`.G.G.E.U.L.P.L.",
"R.h.L.h.p.A 9 .XE.P.L.h.Z.s.5.0 k.*XE.Y.h.L.h.O.h.R.Z.L.j.a.R 9 {.{.L.L.v.l.a.p.t 9.{.P.U.g.L.j.a.a.",
"B D H a n 7 X g k ~ b H f y l @ 6 U ~ ~ z b B M 8 N ~ B s p 8 @ 0 d T b z G t n @ 5 j ^ ~ c ~ B M 0 ",
"oXR.e '.5X.X X.X[.*XC.F 6X-X}.[. X.X;X{.t .X6XXX.X{.`.i /.wXXX|..XXX{.T.q 2X3X}..XXX-X*X.XG S.qXXX.X",
"U.E.d 0XY.U.P.P.P.E.Q.3.2XI.Y.U.I.E.U.E.Z ,XT.L.R.L.E.Y 0XL.P.R.I.P.R.!. .<XH.Y.P.Y.Y.P.P.| -XR.L.L.",
"Y.s.M 3XY.L.Y.I.U.b.{ [ `.U.G.R.I.P.L.B.J XXY.U.U.P.h.J {.Y.P.Y.Y.E.Y.p.J $XR.P.Y.U.R.U.L.V [.L.Y.Y.",
"Y.h.B XXY.R.H.I.L.a.{ ;.`.Y.R.L.L.R.P.l.p -XY.L.L.E.h.B XXT.L.E.E.L.a.{ / @XL.E.T.H.L.G.Z.t `.E.L.Y.",
"x._ 3 XXE.L.B.l.a.p.J W XXY.P.Y.L.h.h.X.x [.R.U.L.v.5.e {.~.c.h.l.p.a._ y }.E.v.v.L.L.z.6.l |.E.Y.Y.",
"U 2 + P ] p u i T C & - =.! Y n G s N 0 + G 2.G J J e = K 9.B u i ( C : # Q ! ! B M p s p @ g 3.G G ",
"&XD.).).[.M.- K.&X[.T.S.C.T.T.K I $X{.T.S.).S.q >.4XW.D.).).V.7 i.&X).).^.F.D.T.Q F #X).`.D.).D.J J ",
"R.E.R.P.T.>Xp wXR.R.I.L.a.A.!.6.`.+XE.Y.`.U.[.| d.E.R.E.U.I.{.k eXE.P.U.L.a.P.E.A.M.%XU.P.R.Y._.0.5.",
"P.P.L.Q.Y.l.N >XY.L.Z.P.E.Y.L.] D.R.P.L.Y.P.L.J l.P.Y.L.T.U.L.N >XT.Y.l.P.E.I.P.X.p._.P.P.L.T.L.] 5.",
"T.Y.R.L.Y.d.H >XY.P.Z.E.R.R.h.R ^.E.T.L.T.T.B.~ B.L.R.E.L.Y.f.v >XL.R.x.E.E.R.G.! 0.`.U.L.I.E.l.^ t.",
"R.U.v.v.I.X.D -XI.L.E.L.L.L.z.C S.P.a.I.L.P.h.B g.I.c.L.L.L.a.B ;XR.G.E.L.l.L.b.S 6.[.p.I.G.v.v.^ p.",
"L...5.) ) e $ C.Z.f.5.B ] ] R o J T.p.^ ^ ) N & =.P.a.5.^ ) r + 0.D.f.f.R ] _ R * N D.h.) T ) A $ F ",
"9.8.G $ %.7.@.$...=.F - =.9.9.' @.8.M.*.$ P 7.#.#.3.0.E 4 +.7.@.' 8.1.F $ =.9.;.@.@.:.m.;.6 F 9.Q :.",
"E.`.`.G wX`.`.E.[.{.).=.9X`.`.`.`.!.`.-XG 5X-X`.{.[.E..Xi 0X@X`.{.{.{.{.J 7X#X`.[.{.}.E.{.! -X,X!.!.",
"Y.P.Z.d {.E.P.n.I.Y.l.R *XI.Y.P.R.P.I.T.d =XE.I.I.L.I.T.d ;XL.L.P.I.L.P.N <XP.Y.Y.I.L.I.P.Y {.R.U.Y.",
"I.P.;.N =XY.Y.I.I.L.X.=.{.P.P.Y.P.Y.U.a.p ;XY.I.Y.L.Y.a.i >XY.L.U.L.R.5.J ;XY.R.Y.Y.Y.U.l.N .XP.U.Y.",
"P.E.;.) {.T.L.E.Y.L.] ] {.Y.Y.Y.R.G.I.g.B >XT.L.I.L.P.p.J ;XL.I.Y.R.Y.5.J >XU.L.Y.I.E.L.s.J ].I.L.L.",
"I.x...U -XP.Y.L.Y.P.X.;.*XL.L.E.L.b.P.j.e -XL.x.Y.L.L.p.N >XE.P.Y.L.L.X.^ {.P.I.I.v.L.E.l.N ).T.L.L.",
"{ X.3 ; Y.V.{ ] [ ] ; 0 _.P.k.t.] ' ;.s * d.R.o._ { _ 3 & Z.Y.] { ) ..e > Y.Y.h.a.) { ` N & 0.E.X...",
"| } F L W L % K y.! U P *.! ! 5 7 u.-.E E K ;.| U W <.h L L I $ l m.=.G F @.<.! 8 5 u.,.@.h L >.<.W ",
"{.{.B.[.}.XXt 0X*X*X{.`..X{.!.0.J.4X`.}.{.{.{.!.*X{.!.l.!.}.{.m 5X$X!.{..X`.[.}.M.m.4X@X[.XX!.*X{.{.",
"L.I.v.a.I.Y.f 1XY.L.I.P.P.I.P.] A.Q.E.L.I.U.P.v.L.I.R.L.a.P.P.C ;XR.P.L.L.R.P.I.0.C.E.P.P.P.U.L.L.Y.",
"Y.U.L.R.P.d.~ 2XR.L.U.Y.I.L.Y.' )._.I.E.P.Y.R.R.U.T.U.Y.G.Y.h.B 3XR.Y.L.U.Y.T.I.[ m.`.I.R.J.Y.P.R.Y.",
"U.x.H.z.l.Q q {.E.R.L.x.Z.s.p.p N.}.R.L.h.I.l.h.Z.L.x.L.h.h...w {.[.H.L.l.G.a.s.M ;.}.R.G.B.I.h.z.s.",
"T ~ ^ 3 m 7   G Y ^ ^ D N y x + 7 ! ^ ^ ^ ^ N n 0 A D ^ y y 1 . i U ^ ^ V B y n + - Y ^ / ^ ^ B i q "
};
